<?xml version="1.0" encoding="utf-8"?>
<!-- Generator: Adobe Illustrator 20.0.0, SVG Export Plug-In . SVG Version: 6.00 Build 0)  -->
<svg version="1.1" id="Capa_1" xmlns="http://www.w3.org/2000/svg" xmlns:xlink="http://www.w3.org/1999/xlink" x="0px" y="0px"
	 viewBox="0 0 800 400" style="enable-background:new 0 0 800 400;" xml:space="preserve">
<style type="text/css">
	.st0{fill:#FFFFFF;}
</style>
<g>
	<polygon class="st0" points="272,95 170,95 170,95.4 81,262 6,262 6,305 107,305 107,304.7 107,304.7 196.8,139 272,139 	"/>
	<g>
		<polygon class="st0" points="188.7,232.1 167.9,270.3 231.5,305 273,305 273,277.4 		"/>
	</g>
	<polygon class="st0" points="132,95 6,95 6,139 108.6,139 	"/>
</g>
<g>
	<g>
		<path class="st0" d="M398.6,136.2l-17.5,10.6c-3.5-4.9-8.7-7.9-15.3-7.9c-9.4,0-15.9,7.7-15.9,19.2c0,11.7,6.5,19.3,15.9,19.3
			c6.9,0,12.3-2.8,15.5-8.6l17.7,10.4c-6.2,11.1-18.4,17.6-34.5,17.6c-23.4,0-39.1-15.5-39.1-38.6c0-23.4,15.9-39,39.4-39
			C379.8,119.2,392,125.4,398.6,136.2z"/>
		<path class="st0" d="M485.3,157.9c0,23.4-16.6,38.9-41.4,38.9c-24.9,0-41.5-15.5-41.5-38.9c0-23.4,16.6-38.7,41.5-38.7
			C468.7,119.2,485.3,134.5,485.3,157.9z M426.9,158.2c0,11.8,6.9,19.7,17,19.7c10,0,16.9-7.9,16.9-19.7c0-11.7-6.9-19.7-16.9-19.7
			C433.8,138.5,426.9,146.5,426.9,158.2z"/>
		<path class="st0" d="M522.8,132.8c5.2-8.9,13.8-13.8,24.6-13.9v22c-14.1-1.3-23.4,5.4-24.6,16.1v39h-24.4V120h24.4V132.8z"/>
		<path class="st0" d="M636,148v47.9h-24.2v-41.1c0-8.9-5.2-14.4-13.4-14.4c-8.9,0-14.5,6.3-15.5,15.3v40.1h-24.4V120h24.4v12.4
			c5.4-8.9,14.1-13.4,25.3-13.5C625,118.9,636,130.3,636,148z"/>
		<path class="st0" d="M724.8,164.5h-53.4c2.4,9,8.9,14.1,17.9,14.1c6.6,0,13.1-2.7,18.2-7.7l12.8,12.5
			c-7.7,8.4-19.2,13.4-33.1,13.4c-24.8,0-40.3-15.5-40.3-38.6c0-23.5,16.1-39,39.6-39C713.3,119.2,726.5,136.8,724.8,164.5z
			 M701.4,151.4c0-9.3-5.9-15.3-14.6-15.3c-8.4,0-14.2,6.2-15.8,15.3H701.4z"/>
		<path class="st0" d="M762.4,132.8c5.2-8.9,13.8-13.8,24.6-13.9v22c-14.1-1.3-23.4,5.4-24.6,16.1v39h-24.4V120h24.4V132.8z"/>
	</g>
	<g>
		<path class="st0" d="M349.5,237.1v43.6h-8.7v-43.6h-16.2v-7.8h41.2v7.8H349.5z"/>
		<path class="st0" d="M411.2,265.2c-0.7,0.1-1.5,0.1-2.4,0.1h-12.2v15.5h-8.7v-51.4h20.9c13.1,0,20.7,6.4,20.7,17.6
			c0,8.2-3.8,14-10.7,16.7l11.5,17.2h-9.8L411.2,265.2z M408.8,257.5c7.9,0,12.5-3.4,12.5-10.4c0-6.8-4.6-10-12.5-10h-12.2v20.3
			H408.8z"/>
		<path class="st0" d="M463,269.1l-4.9,11.6h-9l22.7-51.4h8.9l22.5,51.4h-9.3l-4.9-11.6H463z M476,238.6l-9.7,22.8h19.4L476,238.6z"
			/>
		<path class="st0" d="M524.7,280.7v-51.4h8.7v51.4H524.7z"/>
		<path class="st0" d="M597.6,280.7l-27.4-36.9v36.9h-8.7v-51.4h8.5l27.5,36.9v-36.9h8.5v51.4H597.6z"/>
		<path class="st0" d="M634.4,280.7v-51.4h8.7v51.4H634.4z"/>
		<path class="st0" d="M707.4,280.7L680,243.9v36.9h-8.7v-51.4h8.5l27.5,36.9v-36.9h8.5v51.4H707.4z"/>
		<path class="st0" d="M786.9,255.5v19c-5.2,4-12.9,6.7-20,6.7c-15.2,0-27-11.4-27-26.1c0-14.7,12-25.9,27.5-25.9
			c7.3,0,14.7,2.8,19.8,7.2l-4.9,6.4c-4-3.7-9.5-5.9-14.8-5.9c-10.5,0-18.7,8-18.7,18.2c0,10.3,8.3,18.3,18.8,18.3
			c3.8,0,8.2-1.3,11.8-3.5v-14.3H786.9z"/>
	</g>
</g>
</svg>
