<svg id="Capa_1" data-name="Capa 1" xmlns="http://www.w3.org/2000/svg" viewBox="0 0 781.2 210"><defs><style>.cls-1{fill:#ff7b00;}.cls-2{fill:#fff;}</style></defs><title>corner-training-color</title><polygon class="cls-1" points="266 0 164 0 164 0.4 75 167 0 167 0 210 101 210 101 209.7 101 209.7 190.8 44 266 44 266 0"/><polygon class="cls-1" points="182.7 137.1 161.9 175.3 225.5 210 267 210 267 182.4 182.7 137.1"/><polygon class="cls-1" points="126 0 0 0 0 44 102.6 44 126 0"/><path class="cls-2" d="M398.6,136.2l-17.5,10.6a18.19,18.19,0,0,0-15.3-7.9c-9.4,0-15.9,7.7-15.9,19.2,0,11.7,6.5,19.3,15.9,19.3,6.9,0,12.3-2.8,15.5-8.6L399,179.2c-6.2,11.1-18.4,17.6-34.5,17.6-23.4,0-39.1-15.5-39.1-38.6,0-23.4,15.9-39,39.4-39C379.8,119.2,392,125.4,398.6,136.2Z" transform="translate(-6 -95)"/><path class="cls-2" d="M485.3,157.9c0,23.4-16.6,38.9-41.4,38.9s-41.5-15.5-41.5-38.9,16.6-38.7,41.5-38.7S485.3,134.5,485.3,157.9Zm-58.4.3c0,11.8,6.9,19.7,17,19.7s16.9-7.9,16.9-19.7-6.9-19.7-16.9-19.7S426.9,146.5,426.9,158.2Z" transform="translate(-6 -95)"/><path class="cls-2" d="M522.8,132.8c5.2-8.9,13.8-13.8,24.6-13.9v22c-14.1-1.3-23.4,5.4-24.6,16.1v39H498.4V120h24.4Z" transform="translate(-6 -95)"/><path class="cls-2" d="M636,148v47.9H611.8V154.8c0-8.9-5.2-14.4-13.4-14.4-8.9,0-14.5,6.3-15.5,15.3v40.1H558.5V120h24.4v12.4c5.4-8.9,14.1-13.4,25.3-13.5C625,118.9,636,130.3,636,148Z" transform="translate(-6 -95)"/><path class="cls-2" d="M724.8,164.5H671.4c2.4,9,8.9,14.1,17.9,14.1a26,26,0,0,0,18.2-7.7l12.8,12.5c-7.7,8.4-19.2,13.4-33.1,13.4-24.8,0-40.3-15.5-40.3-38.6,0-23.5,16.1-39,39.6-39C713.3,119.2,726.5,136.8,724.8,164.5Zm-23.4-13.1c0-9.3-5.9-15.3-14.6-15.3-8.4,0-14.2,6.2-15.8,15.3Z" transform="translate(-6 -95)"/><path class="cls-2" d="M762.4,132.8c5.2-8.9,13.8-13.8,24.6-13.9v22c-14.1-1.3-23.4,5.4-24.6,16.1v39H738V120h24.4Z" transform="translate(-6 -95)"/><path class="cls-2" d="M349.5,237.1v43.6h-8.7V237.1H324.6v-7.8h41.2v7.8Z" transform="translate(-6 -95)"/><path class="cls-2" d="M411.2,265.2a17.72,17.72,0,0,1-2.4.1H396.6v15.5h-8.7V229.4h20.9c13.1,0,20.7,6.4,20.7,17.6,0,8.2-3.8,14-10.7,16.7l11.5,17.2h-9.8Zm-2.4-7.7c7.9,0,12.5-3.4,12.5-10.4,0-6.8-4.6-10-12.5-10H396.6v20.3h12.2Z" transform="translate(-6 -95)"/><path class="cls-2" d="M463,269.1l-4.9,11.6h-9l22.7-51.4h8.9l22.5,51.4h-9.3L489,269.1Zm13-30.5-9.7,22.8h19.4Z" transform="translate(-6 -95)"/><path class="cls-2" d="M524.7,280.7V229.3h8.7v51.4Z" transform="translate(-6 -95)"/><path class="cls-2" d="M597.6,280.7l-27.4-36.9v36.9h-8.7V229.3H570l27.5,36.9V229.3H606v51.4Z" transform="translate(-6 -95)"/><path class="cls-2" d="M634.4,280.7V229.3h8.7v51.4Z" transform="translate(-6 -95)"/><path class="cls-2" d="M707.4,280.7,680,243.9v36.9h-8.7V229.4h8.5l27.5,36.9V229.4h8.5v51.4h-8.4Z" transform="translate(-6 -95)"/><path class="cls-2" d="M786.9,255.5v19a34.54,34.54,0,0,1-20,6.7c-15.2,0-27-11.4-27-26.1s12-25.9,27.5-25.9a31.18,31.18,0,0,1,19.8,7.2l-4.9,6.4a22.33,22.33,0,0,0-14.8-5.9c-10.5,0-18.7,8-18.7,18.2s8.3,18.3,18.8,18.3a23.7,23.7,0,0,0,11.8-3.5V255.6h7.5Z" transform="translate(-6 -95)"/></svg>